<svg width="173" height="40" viewBox="0 0 173 40" fill="none" xmlns="http://www.w3.org/2000/svg">
<path d="M62.8625 22.8918L65.7941 10.5024H68.9141L64.6215 26.6523H61.0617L56.79 10.5024H59.931L62.8625 22.8918Z" fill="white"/>
<path d="M81.6588 10.5024L74.4764 34.29H71.3564L73.8692 26.2442L69.2206 10.5024H72.5081L75.5025 21.784L78.5388 10.5024H81.6588Z" fill="white"/>
<path d="M87.6783 26.9147C86.729 26.9147 85.8775 26.6815 85.1237 26.215C84.3698 25.7292 83.7696 25.0781 83.3228 24.2619C82.8901 23.4456 82.6528 22.5419 82.6109 21.5508H85.5634C85.6192 22.1727 85.8356 22.6877 86.2125 23.0958C86.6034 23.5039 87.085 23.708 87.6574 23.708C88.2158 23.708 88.6485 23.5525 88.9556 23.2416C89.2767 22.9306 89.4373 22.5322 89.4373 22.0464C89.4373 21.5216 89.2418 21.1329 88.8509 20.8803C88.474 20.6082 87.8668 20.3167 87.0292 20.0058C86.1637 19.7142 85.4517 19.413 84.8933 19.1021C84.3489 18.7911 83.8743 18.315 83.4694 17.6736C83.0785 17.0323 82.8831 16.1675 82.8831 15.0791C82.8831 14.1852 83.0646 13.3689 83.4275 12.6304C83.8045 11.8919 84.3349 11.3089 85.019 10.8813C85.717 10.4538 86.5336 10.24 87.4689 10.24C88.8509 10.24 89.9538 10.7259 90.7774 11.6976C91.601 12.6499 92.0547 13.9422 92.1385 15.5747H89.3326C89.2907 14.9334 89.0952 14.4281 88.7462 14.0588C88.4112 13.6702 87.9575 13.4758 87.3852 13.4758C86.8547 13.4758 86.4429 13.6119 86.1497 13.8839C85.8705 14.156 85.7309 14.535 85.7309 15.0208C85.7309 15.565 85.9264 15.9828 86.3172 16.2744C86.7081 16.5464 87.3154 16.8282 88.139 17.1198C88.9766 17.4113 89.6676 17.7125 90.212 18.0235C90.7565 18.3344 91.2241 18.8203 91.615 19.481C92.0198 20.1224 92.2292 20.9775 92.2432 22.0464C92.2432 22.9792 92.0547 23.8149 91.6778 24.5534C91.3149 25.2919 90.7844 25.8749 90.0864 26.3025C89.4024 26.7106 88.5997 26.9147 87.6783 26.9147Z" fill="white"/>
<path d="M114.046 10.2691C115.47 10.2691 116.614 10.8813 117.48 12.1057C118.359 13.3106 118.799 15.0014 118.799 17.1781V26.6523H115.868V17.7319C115.868 16.4687 115.637 15.5067 115.177 14.8459C114.716 14.1657 114.088 13.8256 113.292 13.8256C112.496 13.8256 111.861 14.1657 111.386 14.8459C110.926 15.5067 110.695 16.4687 110.695 17.7319V26.6523H107.764V17.7319C107.764 16.4687 107.533 15.5067 107.073 14.8459C106.612 14.1657 105.984 13.8256 105.188 13.8256C104.379 13.8256 103.736 14.1657 103.262 14.8459C102.801 15.5067 102.571 16.4687 102.571 17.7319V26.6523H99.6392V10.5024H102.571V12.4555C102.948 11.7753 103.429 11.2409 104.016 10.8522C104.616 10.4635 105.272 10.2691 105.984 10.2691C106.891 10.2691 107.701 10.5412 108.413 11.0854C109.125 11.6101 109.676 12.3681 110.067 13.3592C110.444 12.4264 110.989 11.6781 111.7 11.1145C112.426 10.5509 113.208 10.2691 114.046 10.2691Z" fill="white"/>
<path d="M126.732 26.9147C125.615 26.9147 124.61 26.5746 123.717 25.8944C122.823 25.1947 122.118 24.2133 121.602 22.9501C121.099 21.6868 120.848 20.2292 120.848 18.5773C120.848 16.9254 121.106 15.4678 121.623 14.2046C122.153 12.9414 122.872 11.9697 123.78 11.2895C124.687 10.5898 125.699 10.24 126.816 10.24C127.933 10.24 128.945 10.5898 129.852 11.2895C130.76 11.9697 131.472 12.9414 131.988 14.2046C132.519 15.4678 132.784 16.9254 132.784 18.5773C132.784 20.2292 132.512 21.6868 131.967 22.9501C131.437 24.2133 130.711 25.1947 129.789 25.8944C128.882 26.5746 127.863 26.9147 126.732 26.9147ZM126.732 23.3582C127.263 23.3582 127.758 23.1833 128.219 22.8335C128.694 22.4642 129.07 21.92 129.35 21.201C129.629 20.4819 129.768 19.6074 129.768 18.5773C129.768 17.042 129.475 15.8662 128.889 15.05C128.317 14.2143 127.612 13.7965 126.774 13.7965C125.936 13.7965 125.231 14.2143 124.659 15.05C124.101 15.8662 123.822 17.042 123.822 18.5773C123.822 20.1126 124.094 21.2981 124.638 22.1338C125.197 22.9501 125.895 23.3582 126.732 23.3582Z" fill="white"/>
<path d="M141.363 10.2691C142.745 10.2691 143.861 10.8813 144.713 12.1057C145.565 13.3106 145.99 15.0014 145.99 17.1781V26.6523H143.059V17.7319C143.059 16.4493 142.828 15.4678 142.368 14.7876C141.907 14.088 141.279 13.7382 140.483 13.7382C139.674 13.7382 139.031 14.088 138.557 14.7876C138.096 15.4678 137.866 16.4493 137.866 17.7319V26.6523H134.934V10.5024H137.866V12.5138C138.257 11.8142 138.752 11.27 139.352 10.8813C139.967 10.4732 140.637 10.2691 141.363 10.2691Z" fill="white"/>
<path d="M159.562 18.2275C159.562 18.8105 159.534 19.3353 159.478 19.8017H150.998C151.068 20.9678 151.361 21.8812 151.877 22.5419C152.394 23.2027 153.029 23.5331 153.783 23.5331C154.872 23.5331 155.646 22.882 156.107 21.5799H159.269C158.934 23.1347 158.292 24.4174 157.343 25.4279C156.393 26.4191 155.228 26.9147 153.846 26.9147C152.729 26.9147 151.724 26.5746 150.83 25.8944C149.951 25.1947 149.26 24.2133 148.757 22.9501C148.269 21.6868 148.024 20.2292 148.024 18.5773C148.024 16.906 148.269 15.4387 148.757 14.1755C149.246 12.9122 149.93 11.9405 150.809 11.2603C151.689 10.5801 152.701 10.24 153.846 10.24C154.948 10.24 155.933 10.5704 156.798 11.2311C157.678 11.8919 158.355 12.8345 158.829 14.0588C159.318 15.2638 159.562 16.6533 159.562 18.2275ZM156.526 17.0615C156.512 16.012 156.24 15.1763 155.709 14.5544C155.179 13.9131 154.53 13.5924 153.762 13.5924C153.036 13.5924 152.422 13.9034 151.919 14.5253C151.431 15.1277 151.13 15.9731 151.019 17.0615H156.526Z" fill="white"/>
<path d="M172.8 10.5024L165.618 34.29H162.498L165.01 26.2442L160.362 10.5024H163.649L166.644 21.784L169.68 10.5024H172.8Z" fill="white"/>
<path d="M34.1422 5.85781C30.3647 2.08031 25.3422 0 20 0C14.6578 0 9.63531 2.08031 5.85781 5.85781C2.08031 9.63531 0 14.6578 0 20C0 25.3422 2.08039 30.3646 5.85781 34.1422C9.63523 37.9198 14.6578 40 20 40C25.3422 40 30.3647 37.9197 34.1422 34.1422C37.9197 30.3647 40 25.3422 40 20C40 14.6578 37.9196 9.63539 34.1422 5.85781Z" fill="#33CC95"/>
<g clip-path="url(#clip0)">
<path d="M20.5714 8V33.1429" stroke="white" stroke-width="2" stroke-linecap="round" stroke-linejoin="round"/>
<path d="M26.2857 12.5714H17.7143C16.6534 12.5714 15.636 12.9929 14.8859 13.743C14.1357 14.4931 13.7143 15.5106 13.7143 16.5714C13.7143 17.6323 14.1357 18.6497 14.8859 19.3999C15.636 20.15 16.6534 20.5714 17.7143 20.5714H23.4286C24.4894 20.5714 25.5069 20.9929 26.257 21.743C27.0072 22.4932 27.4286 23.5106 27.4286 24.5714C27.4286 25.6323 27.0072 26.6497 26.257 27.3999C25.5069 28.15 24.4894 28.5714 23.4286 28.5714H13.7143" stroke="white" stroke-width="2" stroke-linecap="round" stroke-linejoin="round"/>
</g>
<defs>
<clipPath id="clip0">
<rect width="27.4286" height="27.4286" fill="white" transform="translate(6.85715 6.85714)"/>
</clipPath>
</defs>
</svg>
